<svg xmlns="http://www.w3.org/2000/svg" width="684" height="559" viewBox="0 0 684 559" fill="none"><path d="M564.149 558.5C569.62 496.803 675.051 362.335 604.126 195.463C542.385 50.2011 354.703 37.3156 321.546 117.365C301.606 165.505 366.824 189.915 384.521 133.766C412.092 46.293 321.546 1 222.36 1C108.61 1.00078 49.5857 135.6 98.4828 232.458C119.04 273.18 116.929 307.814 75.5897 327.1C46.832 340.516 23.2 360.598 29.6484 394.5C67.7855 595 416.648 550 301.148 381.5" stroke="url(#paint0_linear_2100_118726)" stroke-width="1.81962" stroke-dasharray="3.64 3.64"></path><g clip-path="url(#clip0_2100_118726)"><mask id="mask0_2100_118726" style="mask-type:luminance" maskUnits="userSpaceOnUse" x="0" y="69" width="684" height="438"><path d="M684 69H0V507H684V69Z" fill="white"></path></mask><g mask="url(#mask0_2100_118726)"><mask id="mask1_2100_118726" style="mask-type:luminance" maskUnits="userSpaceOnUse" x="48" y="83" width="596" height="398"><path d="M643.974 83.8672H48.2695V480.358H643.974V83.8672Z" fill="white"></path></mask><g mask="url(#mask1_2100_118726)"><mask id="mask2_2100_118726" style="mask-type:luminance" maskUnits="userSpaceOnUse" x="53" y="70" width="591" height="443"><path d="M643.975 70.375H53.4609V512.535H643.975V70.375Z" fill="white"></path></mask><g mask="url(#mask2_2100_118726)"><path d="M601.828 159.926H216.073C211.529 159.926 207.844 163.611 207.844 168.157V423.457C207.844 428.003 211.529 431.688 216.073 431.688H601.828C606.373 431.688 610.058 428.003 610.058 423.457V168.157C610.058 163.611 606.373 159.926 601.828 159.926Z" fill="black" stroke="black" stroke-width="0.881533" stroke-miterlimit="10"></path><path d="M601.756 149.008H216.146C211.56 149.008 207.844 152.725 207.844 157.311V412.467C207.844 417.053 211.56 420.77 216.146 420.77H601.756C606.34 420.77 610.058 417.053 610.058 412.467V157.311C610.058 152.725 606.34 149.008 601.756 149.008Z" fill="#FBED7F" stroke="black" stroke-width="0.881533" stroke-miterlimit="10"></path><path d="M610.286 179.242H207.719" stroke="black" stroke-width="0.881533" stroke-miterlimit="10"></path><path d="M223.886 171.375C227.497 171.375 230.424 168.447 230.424 164.836C230.424 161.225 227.497 158.297 223.886 158.297C220.276 158.297 217.348 161.225 217.348 164.836C217.348 168.447 220.276 171.375 223.886 171.375Z" fill="white"></path><path d="M243.597 171.375C247.208 171.375 250.136 168.447 250.136 164.836C250.136 161.225 247.208 158.297 243.597 158.297C239.986 158.297 237.059 161.225 237.059 164.836C237.059 168.447 239.986 171.375 243.597 171.375Z" fill="white"></path><path d="M263.295 171.375C266.907 171.375 269.834 168.447 269.834 164.836C269.834 161.225 266.907 158.297 263.295 158.297C259.685 158.297 256.758 161.225 256.758 164.836C256.758 168.447 259.685 171.375 263.295 171.375Z" fill="white"></path><path d="M150.824 423.117V480.037" stroke="white" stroke-width="0.881533" stroke-miterlimit="10"></path><path d="M148.346 419.264L135.094 405.751L141.466 385.355L154.896 398.287L148.346 419.264Z" fill="black" stroke="black" stroke-width="0.881533" stroke-linejoin="round"></path><path d="M148.391 419.274L166.978 415.704L173.34 395.309L154.939 398.297L148.391 419.274Z" fill="white" stroke="black" stroke-width="0.881533" stroke-linejoin="round"></path><path d="M159.793 382.594L141.465 385.355L154.935 398.297L173.336 395.309L159.793 382.594Z" fill="white" stroke="black" stroke-width="0.881533" stroke-linejoin="round"></path><path d="M162.023 219.535L175.536 207.391L188.561 219.535" stroke="#2D6CE6" stroke-width="0.881533" stroke-miterlimit="10"></path><path d="M136.867 160.029L150.379 147.875L163.414 160.029" stroke="#2D6CE6" stroke-width="0.881533" stroke-miterlimit="10"></path><path d="M328.53 393.846C328.528 398.454 326.695 402.874 323.436 406.132C320.176 409.39 315.756 411.22 311.148 411.22H207.844V376.449H311.148C313.432 376.448 315.693 376.897 317.804 377.771C319.914 378.645 321.832 379.926 323.446 381.542C325.061 383.158 326.341 385.076 327.213 387.187C328.085 389.298 328.534 391.56 328.53 393.846Z" fill="black" stroke="black" stroke-width="0.881533" stroke-miterlimit="10"></path><path d="M174.238 193.813V103.945C174.24 99.3616 175.342 94.9673 177.303 91.7276C179.263 88.4879 181.922 86.668 184.694 86.668H257.965C260.736 86.668 263.395 88.4879 265.356 91.7276C267.316 94.9673 268.419 99.3616 268.421 103.945V111.431" stroke="#2D6CE6" stroke-width="0.881533" stroke-miterlimit="10" stroke-dasharray="1.76 1.76"></path><path d="M174.789 297.369V224.641" stroke="#2D6CE6" stroke-width="0.881533" stroke-miterlimit="10" stroke-dasharray="1.76 1.76"></path><path d="M150.141 234.657V161.918" stroke="#2D6CE6" stroke-width="0.881533" stroke-miterlimit="10" stroke-dasharray="1.76 1.76"></path><path d="M568.372 232.531H422.715V339.044H568.372V232.531Z" fill="white"></path><path d="M395.188 232.531H249.531V339.044H395.188V232.531Z" fill="white"></path><path d="M259.992 260.574H385.951H259.992Z" fill="#2D6CE6"></path><path d="M259.992 260.574H385.951" stroke="#2D6CE6" stroke-width="0.881533" stroke-miterlimit="10"></path><path d="M259.992 279.852H385.951H259.992Z" fill="#2D6CE6"></path><path d="M259.992 279.852H385.951" stroke="#2D6CE6" stroke-width="0.881533" stroke-miterlimit="10"></path><path d="M259.992 299.121H385.951H259.992Z" fill="#2D6CE6"></path><path d="M259.992 299.121H385.951" stroke="#2D6CE6" stroke-width="0.881533" stroke-miterlimit="10"></path><path d="M259.992 318.398H385.951H259.992Z" fill="#2D6CE6"></path><path d="M259.992 318.398H385.951" stroke="#2D6CE6" stroke-width="0.881533" stroke-miterlimit="10"></path><path d="M259.992 316.144L273.743 314.577L281.299 315.802L288.801 312.739L294.842 315.552L315.608 308.027L320.112 311.909L337.641 297.95L341.419 299.506L349.919 284.414L378.25 249.156" stroke="#2D6CE6" stroke-width="2" stroke-miterlimit="10"></path><path d="M502.458 256.84H437.481C436.822 256.84 436.191 257.101 435.726 257.566C435.261 258.031 435 258.663 435 259.321C434.999 259.647 435.062 259.971 435.186 260.273C435.31 260.576 435.492 260.85 435.723 261.082C435.954 261.313 436.228 261.497 436.529 261.623C436.831 261.747 437.154 261.812 437.481 261.812H502.458C503.119 261.812 503.752 261.55 504.219 261.082C504.687 260.615 504.948 259.981 504.948 259.321C504.946 258.661 504.682 258.031 504.216 257.566C503.748 257.101 503.116 256.84 502.458 256.84Z" fill="#2D6CE6"></path><path d="M548.682 256.84H518.035C517.377 256.84 516.746 257.101 516.281 257.566C515.816 258.031 515.555 258.663 515.555 259.321C515.554 259.647 515.616 259.971 515.741 260.273C515.864 260.576 516.047 260.85 516.278 261.082C516.508 261.313 516.781 261.497 517.084 261.623C517.385 261.747 517.708 261.812 518.035 261.812H548.682C549.009 261.813 549.333 261.75 549.637 261.625C549.94 261.5 550.214 261.316 550.446 261.086C550.678 260.854 550.861 260.578 550.986 260.276C551.11 259.973 551.173 259.648 551.172 259.321C551.172 258.995 551.107 258.671 550.983 258.369C550.858 258.068 550.674 257.794 550.442 257.563C550.21 257.332 549.936 257.15 549.633 257.026C549.332 256.902 549.008 256.839 548.682 256.84Z" fill="#2D6CE6"></path><path d="M548.681 295.813H535.844C535.517 295.813 535.194 295.877 534.891 296.002C534.59 296.127 534.317 296.311 534.086 296.543C533.855 296.774 533.673 297.049 533.549 297.35C533.425 297.653 533.362 297.977 533.363 298.303C533.363 298.961 533.625 299.592 534.09 300.057C534.555 300.522 535.186 300.784 535.844 300.784H548.681C549.008 300.785 549.332 300.722 549.633 300.598C549.936 300.474 550.21 300.291 550.442 300.061C550.673 299.831 550.857 299.557 550.982 299.255C551.107 298.954 551.172 298.63 551.172 298.303C551.173 297.975 551.11 297.652 550.985 297.348C550.86 297.045 550.678 296.771 550.446 296.539C550.214 296.307 549.939 296.123 549.636 295.999C549.333 295.875 549.008 295.811 548.681 295.813Z" fill="#2D6CE6"></path><path d="M468.128 276.332H437.481C436.821 276.334 436.191 276.598 435.726 277.066C435.261 277.532 435 278.164 435 278.823C435 279.482 435.261 280.114 435.726 280.58C436.191 281.048 436.821 281.311 437.481 281.314H468.128C468.788 281.314 469.421 281.051 469.889 280.585C470.355 280.117 470.617 279.484 470.617 278.823C470.617 278.162 470.355 277.528 469.889 277.062C469.421 276.595 468.788 276.332 468.128 276.332Z" fill="#2D6CE6"></path><path d="M549.461 276.332H482.74C482.081 276.334 481.448 276.598 480.982 277.064C480.516 277.531 480.252 278.163 480.25 278.823C480.252 279.483 480.516 280.115 480.982 280.581C481.448 281.048 482.081 281.311 482.74 281.314H549.461C550.122 281.314 550.755 281.051 551.222 280.585C551.69 280.117 551.952 279.484 551.952 278.823C551.952 278.162 551.69 277.528 551.222 277.062C550.755 276.595 550.122 276.332 549.461 276.332Z" fill="#2D6CE6"></path><path d="M524.407 295.812H437.481C437.154 295.812 436.831 295.877 436.529 296.002C436.228 296.127 435.954 296.311 435.723 296.542C435.492 296.774 435.31 297.049 435.186 297.35C435.062 297.653 434.999 297.977 435 298.303C435 298.961 435.261 299.592 435.726 300.057C436.191 300.522 436.822 300.784 437.481 300.784H524.407C525.067 300.784 525.699 300.523 526.165 300.058C526.632 299.593 526.896 298.962 526.899 298.303C526.899 297.642 526.636 297.009 526.169 296.541C525.701 296.075 525.068 295.812 524.407 295.812Z" fill="#2D6CE6"></path><path d="M482.46 315.016H437.481C436.822 315.016 436.191 315.277 435.726 315.742C435.261 316.208 435 316.838 435 317.496C434.999 317.824 435.062 318.148 435.186 318.449C435.31 318.752 435.492 319.026 435.723 319.258C435.954 319.489 436.228 319.672 436.529 319.798C436.831 319.923 437.154 319.988 437.481 319.988H482.46C483.12 319.988 483.754 319.725 484.221 319.258C484.687 318.79 484.95 318.157 484.95 317.496C484.947 316.838 484.684 316.207 484.217 315.742C483.75 315.277 483.118 315.016 482.46 315.016Z" fill="#2D6CE6"></path><path d="M53.9766 342.48H295.589V348.178C295.589 353.496 293.477 358.597 289.717 362.358C285.957 366.118 280.857 368.231 275.539 368.231H74.0271C68.7093 368.231 63.6094 366.118 59.8492 362.358C56.089 358.597 53.9766 353.496 53.9766 348.178V342.48Z" fill="black" stroke="black" stroke-width="0.881533" stroke-miterlimit="10"></path><path d="M278.217 325.105H71.3495C66.7419 325.105 62.323 326.935 59.0649 330.194C55.8069 333.452 53.9766 337.872 53.9766 342.481C53.9766 347.088 55.8069 351.508 59.0649 354.766C62.323 358.025 66.7419 359.855 71.3495 359.855H278.217C280.497 359.855 282.757 359.406 284.865 358.532C286.973 357.66 288.888 356.38 290.501 354.766C292.114 353.153 293.393 351.237 294.267 349.13C295.14 347.021 295.589 344.761 295.589 342.481C295.589 340.199 295.14 337.939 294.267 335.831C293.393 333.723 292.114 331.807 290.501 330.194C288.888 328.581 286.973 327.301 284.865 326.428C282.757 325.554 280.497 325.105 278.217 325.105Z" fill="#FDF6B4" stroke="black" stroke-width="0.881533" stroke-miterlimit="10"></path><path d="M72.7734 342.48H276.786" stroke="black" stroke-width="0.881533" stroke-miterlimit="10" stroke-dasharray="1.76 1.76"></path><path d="M495.172 161.215L499.262 162.543L497.559 166.892L495.172 161.215Z" fill="black"></path><path d="M496.088 162.053L498.588 162.862L497.551 165.509L496.088 162.053ZM494.25 160.371L497.582 168.27L499.948 162.219L494.25 160.371Z" fill="black"></path><path d="M553.228 466.834L548.776 453.923L548.547 453.83C547.136 453.3 545.767 452.739 544.469 452.148C541.813 450.941 539.245 449.554 536.778 447.997L536.56 447.831L524.75 452.625L510.76 438.894L515.721 425.951L515.597 425.744C513.474 421.991 511.735 418.034 510.408 413.932L510.325 413.671L498.079 409.707L496.18 390.194L508.26 383.479V383.229C509.034 378.966 510.241 374.793 511.861 370.775L511.954 370.525L505.156 359.668L516.251 343.508L529.659 346.112L529.857 345.946C533.251 343.089 536.938 340.597 540.857 338.516L541.086 338.391L542.819 325.935L561.707 320.684L570.093 331.063H570.736C575.185 331.065 579.619 331.538 583.968 332.474H584.227L593.329 324.316L611.169 332.433L610.952 345.48L611.138 345.646C614.757 348.634 618.026 352.022 620.883 355.745L621.049 355.952L633.077 355.506L641.526 373.151L633.077 382.98V383.229C633.919 387.874 634.237 392.598 634.022 397.314V397.584L643.455 404.963L638.588 423.957L625.668 426.033L625.553 426.252C623.206 430.285 620.422 434.048 617.251 437.472L617.064 437.668L619.607 449.574L605.254 459.829L603.665 460.971L592.249 454.089L592.012 454.172C587.758 455.698 583.353 456.764 578.872 457.348H578.602L572.759 468.371L553.228 466.834ZM570.923 353.846C563.265 353.853 555.764 356.017 549.28 360.091C542.795 364.163 537.588 369.981 534.256 376.877C531.907 381.789 530.57 387.124 530.33 392.564C530.09 398.005 530.948 403.437 532.857 408.537C534.765 413.637 537.681 418.3 541.433 422.247C545.185 426.192 549.694 429.341 554.692 431.503C559.708 433.682 565.121 434.801 570.591 434.794C578.248 434.786 585.75 432.622 592.234 428.549C598.718 424.475 603.924 418.658 607.256 411.762C610.218 405.61 611.571 398.807 611.191 391.989C610.809 385.171 608.706 378.561 605.079 372.776C601.451 366.992 596.417 362.222 590.445 358.911C584.473 355.6 577.76 353.857 570.933 353.846H570.923Z" fill="black"></path><path d="M561.518 321.306L569.53 331.187L569.842 331.582H570.734C575.148 331.58 579.548 332.05 583.862 332.983L584.381 333.097L584.776 332.734L593.42 324.938L594.894 325.604L609.205 332.09L610.679 332.754L610.472 345.21V345.719L610.856 346.03C614.442 348.999 617.686 352.358 620.528 356.046L620.85 356.471H621.389L632.805 356.057L636.272 363.322L640.911 373.1L632.805 382.44L632.473 382.815L632.567 383.313C633.395 387.92 633.709 392.606 633.501 397.283V397.813L633.926 398.145L642.904 405.15L641.087 412.209L638.191 423.47L625.811 425.442L625.322 425.525L625.074 425.95C622.769 429.951 620.026 433.684 616.895 437.077L616.533 437.472L616.647 438.001L619.065 449.305L610.306 455.532L605.054 459.362L603.737 460.306L592.787 453.726L592.362 453.476L591.905 453.643C587.679 455.138 583.306 456.182 578.86 456.756L578.331 456.829L578.082 457.306L572.519 467.79L570.911 467.655L553.662 466.316L549.396 453.944L549.23 453.487L548.774 453.31C547.383 452.792 546.023 452.273 544.727 451.65C542.098 450.437 539.553 449.05 537.109 447.498L536.662 447.208L536.164 447.415L524.925 451.971L519.03 446.19L511.412 438.717L516.166 426.325L516.343 425.868L516.093 425.442C513.969 421.722 512.23 417.797 510.904 413.724L510.738 413.226L510.229 413.06L498.554 409.282L498.149 405.13L496.728 390.484L508.31 384.06L508.735 383.821L508.828 383.333C509.588 379.12 510.778 374.994 512.377 371.024L512.575 370.535L512.295 370.089L505.819 359.71L509.835 353.845L516.519 344.1L529.294 346.59L529.782 346.684L530.166 346.372C533.536 343.539 537.191 341.067 541.074 338.992L541.54 338.744L541.613 338.225L543.283 326.393L553.777 323.475L561.518 321.327M570.588 435.333C578.343 435.325 585.939 433.134 592.506 429.008C599.072 424.884 604.345 418.993 607.722 412.011C610.101 407.033 611.452 401.626 611.692 396.113C611.931 390.602 611.056 385.098 609.118 379.932C607.179 374.766 604.218 370.044 600.412 366.05C596.605 362.057 592.032 358.873 586.965 356.69C581.901 354.496 576.439 353.368 570.92 353.378C563.165 353.387 555.568 355.581 549.001 359.708C542.435 363.835 537.162 369.728 533.787 376.711C530.792 382.944 529.426 389.833 529.814 396.738C530.203 403.642 532.334 410.334 536.008 416.192C539.683 422.05 544.782 426.879 550.83 430.233C556.876 433.585 563.674 435.351 570.588 435.365M561.892 320.164L553.506 322.5L542.35 325.613L540.606 338.08C536.655 340.181 532.938 342.693 529.512 345.573L516.02 342.968L508.953 353.274L504.552 359.689L511.392 370.608C509.749 374.661 508.531 378.874 507.759 383.177L495.586 389.934L497.122 405.275L497.599 410.142L509.918 414.129C511.254 418.262 513.003 422.251 515.138 426.034L510.147 439.07L518.252 447.011L524.624 453.238L536.559 448.432C539.043 449.989 541.629 451.376 544.301 452.584C545.66 453.196 547.031 453.758 548.452 454.276L552.945 467.292L570.807 468.724L555.135 467.551L573.069 468.942L578.943 457.867C583.462 457.272 587.905 456.197 592.196 454.66L603.737 461.583L609.309 457.608L605.604 460.255L610.929 456.446L620.268 449.792L617.705 437.825C620.879 434.37 623.663 430.575 626.007 426.511L639.012 424.435L642.124 412.509L644.118 404.788L634.591 397.366C634.804 392.612 634.484 387.849 633.636 383.167L642.197 373.307L637.206 362.866L633.449 355.007L621.296 355.455C618.412 351.704 615.114 348.288 611.468 345.273L611.686 332.131L609.61 331.187L595.33 324.69L593.254 323.735L584.112 332.038C579.718 331.068 575.234 330.567 570.734 330.544H570.34L561.892 320.164ZM570.588 434.337C565.19 434.342 559.849 433.235 554.897 431.089C546.448 427.431 539.52 420.969 535.284 412.793C531.048 404.618 529.762 395.23 531.646 386.217C533.53 377.204 538.467 369.118 545.623 363.324C552.778 357.529 561.714 354.383 570.92 354.416C576.318 354.416 581.658 355.522 586.612 357.665C595.056 361.327 601.977 367.79 606.208 375.962C610.439 384.136 611.721 393.518 609.839 402.527C607.955 411.535 603.022 419.618 595.871 425.412C588.721 431.205 579.791 434.355 570.588 434.327V434.337ZM618.328 451.152L610.886 456.466L609.268 457.629L618.328 451.152Z" fill="black"></path><path d="M549.896 458.947L545.444 446.025L545.215 445.942C543.804 445.413 542.434 444.842 541.137 444.251C538.483 443.047 535.917 441.66 533.457 440.099L533.228 439.964L521.418 444.717L507.428 431.016L512.389 418.073L512.265 417.866C510.142 414.113 508.403 410.156 507.076 406.054L506.993 405.805L494.747 401.84L492.848 382.327L504.938 375.612L504.99 375.373C505.758 371.109 506.961 366.935 508.581 362.918L508.684 362.668L501.887 351.822L512.971 335.651L526.348 338.246L526.534 338.091C529.931 335.231 533.618 332.737 537.536 330.648L537.774 330.524L539.508 318.069L558.354 312.816L566.74 323.197H567.384C571.834 323.195 576.273 323.665 580.626 324.598L580.885 324.659L589.976 316.45L607.816 324.566L607.598 337.613L607.786 337.768C611.392 340.751 614.654 344.129 617.51 347.836L617.676 348.044L629.704 347.608L638.162 365.253L629.662 375.041V375.29C630.502 379.935 630.823 384.659 630.617 389.375V389.644L640.082 397.024L635.194 416.008L622.284 418.084L622.159 418.292C619.829 422.323 617.063 426.087 613.909 429.512L613.721 429.708L616.327 441.604L601.943 451.89L600.385 453.021L588.969 446.15L588.741 446.223C584.485 447.749 580.076 448.814 575.592 449.398H575.322L569.479 460.411L549.896 458.947ZM567.539 345.958C559.895 345.974 552.409 348.137 545.936 352.202C539.462 356.267 534.261 362.069 530.924 368.948C527.967 375.101 526.616 381.904 526.997 388.72C527.38 395.536 529.482 402.145 533.109 407.928C536.737 413.713 541.771 418.483 547.741 421.794C553.711 425.106 560.421 426.849 567.248 426.865C574.904 426.855 582.402 424.69 588.886 420.617C595.368 416.544 600.572 410.727 603.904 403.833C606.252 398.923 607.585 393.591 607.826 388.155C608.066 382.717 607.208 377.288 605.303 372.19C603.397 367.093 600.483 362.433 596.734 358.487C592.987 354.542 588.483 351.392 583.49 349.227C578.471 347.055 573.059 345.942 567.591 345.958H567.539Z" fill="white"></path><path d="M558.191 313.405L566.202 323.276L566.513 323.66H567.407C571.819 323.66 576.22 324.126 580.534 325.051L581.054 325.165L581.448 324.812L590.093 317.048L591.567 317.713L605.847 324.21L607.32 324.885L607.102 337.339V337.807L607.486 338.128C611.074 341.108 614.315 344.482 617.149 348.186L617.47 348.612H618.01L629.426 348.207L632.892 355.473L637.583 365.291L629.478 374.633L629.146 375.006L629.239 375.495C630.073 380.101 630.386 384.788 630.173 389.465V390.004L630.598 390.327L639.586 397.332L637.51 405.377L634.864 415.663L622.525 417.614L622.037 417.697L621.788 418.122C619.469 422.088 616.719 425.785 613.589 429.145L613.225 429.54L613.339 430.069L615.758 441.371L614.44 442.317L601.675 451.44L600.356 452.374L589.408 445.804L588.983 445.544L588.526 445.71C584.301 447.211 579.927 448.255 575.48 448.825L574.951 448.898L574.702 449.364L569.15 459.848L567.53 459.723L550.282 458.373L546.017 446.012L545.861 445.544L545.394 445.378C544.003 444.85 542.644 444.289 541.357 443.707C538.725 442.497 536.176 441.11 533.729 439.556L533.283 439.276L532.785 439.472L521.546 444.029L515.651 438.248L508.033 430.785L512.787 418.329L512.962 417.874L512.724 417.447C510.598 413.733 508.859 409.81 507.535 405.739L507.369 405.231L506.86 405.065L495.185 401.287L494.78 397.135L493.358 382.501L504.972 376.211L505.397 375.972L505.49 375.495C506.252 371.262 507.449 367.12 509.061 363.132L509.257 362.634L508.977 362.188L502.491 351.809L506.518 345.944L513.201 336.208L525.997 338.689L526.486 338.783L526.859 338.46C530.23 335.626 533.889 333.153 537.777 331.081L538.244 330.832L538.316 330.313L539.967 318.47L550.458 315.554L558.191 313.394M567.271 427.412C575.025 427.4 582.619 425.207 589.184 421.08C595.75 416.953 601.02 411.061 604.393 404.079C607.389 397.847 608.757 390.958 608.369 384.054C607.98 377.15 605.85 370.458 602.174 364.601C598.499 358.744 593.4 353.915 587.352 350.563C581.304 347.212 574.507 345.447 567.593 345.435C559.839 345.445 552.243 347.637 545.676 351.762C539.11 355.886 533.836 361.777 530.46 368.758C528.078 373.732 526.726 379.137 526.482 384.647C526.239 390.157 527.109 395.659 529.043 400.825C530.977 405.99 533.932 410.713 537.733 414.708C541.534 418.704 546.103 421.891 551.165 424.08C556.246 426.292 561.73 427.43 567.271 427.423M558.564 312.211L550.178 314.547L539.033 317.661L537.289 330.178C533.334 332.279 529.612 334.79 526.184 337.671L512.693 335.067L505.625 345.373L501.276 351.788L508.095 362.718C506.462 366.774 505.245 370.984 504.463 375.286L492.289 382.044L493.784 397.363L494.25 402.232L506.58 406.217C507.916 410.357 509.672 414.35 511.821 418.133L506.819 431.159L514.923 439.11L521.307 445.337L533.18 440.563C535.664 442.119 538.25 443.506 540.921 444.714C542.281 445.326 543.661 445.897 545.072 446.406L549.566 459.421L567.489 460.813L551.859 459.598L569.773 461.01L575.616 449.904C580.134 449.312 584.576 448.241 588.868 446.708L600.408 453.63L605.981 449.644L602.276 452.291L615.042 443.167L605.981 449.644L616.91 441.839L614.398 429.882C617.575 426.429 620.36 422.634 622.701 418.568L635.704 416.493L638.527 405.553L640.769 396.854L631.242 389.434C631.457 384.676 631.136 379.91 630.288 375.224L638.849 365.364L633.857 354.932L630.1 347.065L617.999 347.502C615.111 343.756 611.815 340.344 608.171 337.33L608.4 324.199L606.324 323.245L592.044 316.748L589.968 315.803L580.815 324.106C576.428 323.164 571.954 322.691 567.469 322.695H567.075L558.626 312.316L558.564 312.211ZM567.271 426.384C561.87 426.384 556.526 425.279 551.569 423.136C543.126 419.474 536.205 413.011 531.974 404.839C527.743 396.665 526.46 387.282 528.343 378.274C530.226 369.265 535.16 361.182 542.309 355.388C549.46 349.595 558.391 346.447 567.593 346.474C572.985 346.471 578.318 347.577 583.263 349.722C591.706 353.384 598.627 359.846 602.858 368.017C607.089 376.19 608.372 385.571 606.491 394.578C604.609 403.587 599.678 411.67 592.53 417.465C585.38 423.259 576.452 426.409 567.25 426.384H567.271Z" fill="black"></path><path d="M608.369 324.199L611.69 332.088L608.141 337.329L608.369 324.199Z" fill="black"></path><path d="M501.254 351.789L504.586 359.687L506.422 358.37L501.254 351.789Z" fill="black"></path><path d="M556.665 436.483L553.748 428.034L553.52 427.951C552.606 427.609 551.714 427.234 550.852 426.85C549.122 426.063 547.448 425.157 545.839 424.141L545.611 423.996L537.89 427.11L528.882 418.267L532.121 409.807L531.996 409.589C530.614 407.137 529.478 404.553 528.602 401.877L528.519 401.629L520.507 399.034L519.293 386.485L527.222 382.094V381.856C527.726 379.071 528.512 376.345 529.567 373.718L529.671 373.47L525.218 366.37L532.358 355.991L541.097 357.693L541.294 357.527C543.514 355.665 545.922 354.037 548.475 352.669L548.714 352.544L549.846 344.407L562.009 341.023L567.489 347.791H567.997C570.903 347.789 573.801 348.095 576.642 348.705L576.902 348.766L582.848 343.39L594.336 348.58L594.192 357.112L594.388 357.267C596.746 359.223 598.88 361.433 600.75 363.858L600.916 364.076L608.793 363.755L614.242 375.172L608.69 381.565V381.814C609.238 384.847 609.448 387.932 609.313 391.011V391.28L615.539 396.107L612.426 408.334L603.989 409.673L603.864 409.891C602.342 412.505 600.536 414.941 598.478 417.157L598.301 417.364L599.961 425.138L589.687 432.487L582.153 428.107L581.924 428.189C579.142 429.185 576.262 429.881 573.331 430.265H573.072L569.253 437.448L556.665 436.483ZM568.132 362.354C563.077 362.358 558.127 363.788 553.846 366.477C549.566 369.166 546.129 373.007 543.93 377.559C541.973 381.622 541.08 386.116 541.33 390.619C541.582 395.122 542.972 399.488 545.369 403.309C547.764 407.13 551.091 410.279 555.035 412.466C558.98 414.651 563.415 415.8 567.924 415.807C572.979 415.794 577.929 414.363 582.209 411.674C586.491 408.986 589.93 405.149 592.137 400.601C593.689 397.357 594.571 393.834 594.73 390.241C594.89 386.648 594.322 383.061 593.063 379.692C591.803 376.324 589.877 373.245 587.4 370.638C584.923 368.031 581.944 365.952 578.646 364.522C575.327 363.084 571.748 362.345 568.132 362.354Z" fill="black"></path><path d="M561.844 341.586L566.949 347.897L567.261 348.28H568.018C570.886 348.279 573.746 348.582 576.549 349.184L577.068 349.298L577.463 348.945L582.963 343.983L583.71 344.326L593.051 348.581L593.797 348.923L593.663 356.864V357.362L594.047 357.674C596.377 359.605 598.483 361.791 600.325 364.192L600.657 364.617H601.187L608.452 364.358L610.631 368.894L613.61 375.121L608.42 381.068L608.172 381.4L608.265 381.899C608.805 384.893 609.011 387.939 608.877 390.981V391.52L609.293 391.843L615 396.294L614.543 398.07L612.022 407.858L604.166 409.113L603.678 409.186L603.429 409.622C601.924 412.231 600.139 414.667 598.105 416.888L597.741 417.282L597.855 417.801L599.392 424.994L598.717 425.471L590.353 431.46L589.678 431.937L582.693 427.786L582.268 427.537L581.811 427.703C579.065 428.689 576.223 429.385 573.333 429.779L572.803 429.851L572.544 430.318L569.014 436.992L568.184 436.92L557.1 436.058L554.382 428.17L554.227 427.703L553.77 427.537C552.856 427.195 551.974 426.831 551.134 426.499C549.423 425.722 547.769 424.827 546.183 423.821L545.727 423.541L545.238 423.738L538.078 426.644L534.373 423.011L529.547 418.278L532.578 410.369L532.754 409.912L532.515 409.487C531.142 407.068 530.019 404.515 529.163 401.868L528.996 401.36L528.489 401.194L520.995 398.661L520.746 396.15L519.843 386.808L527.233 382.656L527.658 382.417L527.752 381.93C528.244 379.179 529.02 376.487 530.065 373.896L530.263 373.398L529.983 372.952L525.832 366.372L528.364 362.718L532.619 356.491L540.776 358.068L541.264 358.161L541.647 357.84C543.842 356 546.221 354.392 548.746 353.044L549.214 352.795L549.285 352.277L550.324 344.741L556.977 342.883L561.833 341.534M567.915 416.265C573.064 416.267 578.111 414.82 582.478 412.088C586.843 409.357 590.353 405.452 592.605 400.82C594.598 396.677 595.508 392.096 595.25 387.505C594.993 382.914 593.576 378.465 591.131 374.57C588.687 370.676 585.295 367.465 581.273 365.239C577.251 363.011 572.73 361.841 568.133 361.835C562.978 361.841 557.929 363.298 553.565 366.041C549.2 368.784 545.696 372.7 543.453 377.343C541.46 381.485 540.55 386.066 540.808 390.657C541.065 395.248 542.482 399.698 544.927 403.592C547.371 407.486 550.763 410.697 554.785 412.924C558.807 415.151 563.328 416.322 567.925 416.327M562.217 340.402L556.716 341.959L549.4 344.035L548.259 352.245C545.669 353.622 543.234 355.272 540.994 357.165L532.162 355.452L527.523 362.209L524.627 366.423L529.121 373.584C528.041 376.242 527.242 379.004 526.735 381.826L518.754 386.258L519.729 396.316L520.041 399.502L528.125 402.118C528.999 404.834 530.15 407.453 531.56 409.934L528.26 418.413L533.573 423.603L537.725 427.703L545.519 424.589C547.149 425.618 548.848 426.534 550.604 427.329C551.496 427.734 552.389 428.107 553.302 428.45L556.24 436.981L567.998 437.895L557.744 437.096L569.503 438.009L573.363 430.743C576.323 430.357 579.234 429.661 582.049 428.668L589.626 433.204L593.279 430.599L590.892 432.26L599.267 426.281L593.32 430.526L600.491 425.399L598.831 417.583C600.92 415.323 602.751 412.837 604.29 410.172L612.821 408.813L615.509 398.361L616.142 395.921L609.915 391.054C610.051 387.925 609.839 384.792 609.282 381.712L614.896 375.246L611.627 368.395L609.157 363.205L601.228 363.496C599.332 361.035 597.167 358.792 594.773 356.812L594.929 348.197L593.549 347.574L584.208 343.319L582.829 342.685L576.767 348.186C573.892 347.572 570.959 347.262 568.018 347.263H567.759L562.217 340.422V340.402ZM567.925 415.289C564.384 415.29 560.881 414.566 557.63 413.161C552.094 410.758 547.557 406.519 544.784 401.16C542.009 395.8 541.168 389.647 542.402 383.74C543.636 377.831 546.869 372.529 551.556 368.729C556.243 364.928 562.098 362.859 568.133 362.873C571.67 362.856 575.174 363.562 578.428 364.949C583.963 367.352 588.501 371.591 591.274 376.952C594.049 382.311 594.89 388.463 593.656 394.372C592.422 400.279 589.189 405.581 584.501 409.381C579.815 413.183 573.96 415.251 567.925 415.237V415.289Z" fill="black"></path><path d="M554.473 431.306L551.568 422.858L551.339 422.774C550.416 422.432 549.523 422.058 548.673 421.674C546.94 420.884 545.261 419.979 543.649 418.965L543.431 418.819L535.71 421.934L526.692 413.09L529.94 404.631L529.815 404.414C528.425 401.964 527.287 399.381 526.422 396.701L526.338 396.452L518.327 393.858L517.102 381.288L525.011 376.908V376.659C525.511 373.872 526.3 371.144 527.366 368.521L527.459 368.273L523.069 361.194L530.209 350.814L538.948 352.516L539.134 352.35C541.357 350.487 543.767 348.858 546.326 347.494L546.555 347.369L547.686 339.232L559.85 335.848L565.329 342.614H565.837C568.743 342.612 571.641 342.918 574.482 343.528L574.742 343.59L580.689 338.224L592.178 343.414L592.043 351.945L592.23 352.102C594.589 354.056 596.727 356.268 598.601 358.692L598.757 358.91L606.623 358.62L612.072 370.036L606.509 376.431L606.562 376.679C607.113 379.712 607.318 382.797 607.174 385.876V386.146L613.401 390.972L610.246 403.198L601.808 404.538L601.683 404.756C600.16 407.386 598.354 409.844 596.297 412.083L596.11 412.281L597.782 420.065L587.413 427.383L579.962 422.92L579.734 423.003C576.956 423.999 574.078 424.695 571.152 425.078H570.881L567.062 432.261L554.473 431.306ZM565.952 357.177C560.899 357.191 555.952 358.624 551.672 361.312C547.394 364 543.955 367.836 541.75 372.383C540.197 375.627 539.316 379.15 539.157 382.743C538.998 386.335 539.565 389.923 540.824 393.292C542.083 396.66 544.009 399.739 546.488 402.346C548.965 404.953 551.942 407.032 555.242 408.461C558.552 409.898 562.124 410.636 565.734 410.63C570.79 410.626 575.743 409.197 580.025 406.508C584.307 403.819 587.745 399.978 589.946 395.425C591.902 391.361 592.797 386.868 592.545 382.364C592.294 377.862 590.905 373.496 588.508 369.675C586.111 365.854 582.786 362.705 578.84 360.518C574.895 358.333 570.462 357.183 565.952 357.177Z" fill="white"></path><path d="M559.655 336.406L564.761 342.717L565.082 343.101H565.83C568.7 343.101 571.563 343.403 574.371 344.004L574.89 344.118L575.284 343.765L580.774 338.846L581.531 339.188L590.872 343.443L591.63 343.786L591.567 351.685V352.183L591.951 352.494C594.281 354.429 596.391 356.614 598.24 359.012L598.562 359.439H599.102L606.366 359.178L608.536 363.714L611.514 369.942L606.325 375.89L606.003 376.263L606.086 376.761C606.637 379.755 606.843 382.802 606.699 385.843V386.383L607.124 386.704L612.832 391.157L612.323 392.922L609.801 402.71L601.945 403.965L601.458 404.038L601.219 404.474C599.714 407.083 597.928 409.519 595.895 411.74L595.531 412.134L595.646 412.653L597.182 419.846L591.359 423.998L590.156 424.869L587.416 426.759L580.432 422.607L580.016 422.358L579.55 422.524C576.803 423.51 573.961 424.206 571.071 424.599L570.541 424.672L570.292 425.14L566.753 431.813L565.933 431.74L554.849 430.879L552.131 422.918L551.964 422.461L551.508 422.285C550.605 421.942 549.713 421.579 548.882 421.247C547.167 420.471 545.51 419.576 543.922 418.57L543.476 418.288L542.976 418.486L535.816 421.392L532.122 417.76L527.295 413.027L530.336 405.066L530.513 404.609L530.264 404.183C528.896 401.762 527.773 399.21 526.911 396.565L526.756 396.056L526.247 395.89L518.816 393.483L518.568 390.971L517.654 381.629L525.044 377.478L525.48 377.239L525.562 376.751C526.064 374.001 526.843 371.309 527.887 368.717L528.084 368.219L527.804 367.772L523.653 361.192L526.185 357.529L530.43 351.3L538.639 352.94L539.127 353.035L539.5 352.712C541.698 350.878 544.076 349.27 546.599 347.918L547.066 347.668L547.138 347.149L548.176 339.613L554.808 337.807L559.655 336.458M565.736 411.19C570.891 411.185 575.94 409.729 580.306 406.985C584.671 404.243 588.175 400.326 590.415 395.683C592.412 391.541 593.324 386.96 593.069 382.369C592.812 377.778 591.397 373.327 588.953 369.433C586.509 365.538 583.117 362.327 579.095 360.099C575.073 357.873 570.552 356.702 565.955 356.698C560.804 356.699 555.757 358.149 551.393 360.885C547.029 363.62 543.521 367.528 541.275 372.163C539.282 376.305 538.371 380.885 538.629 385.475C538.885 390.066 540.302 394.515 542.746 398.409C545.189 402.303 548.579 405.513 552.599 407.741C556.62 409.969 561.139 411.141 565.736 411.149M560.039 335.223L554.528 336.77L547.211 338.846L546.069 347.056C543.485 348.442 541.05 350.09 538.805 351.975L529.963 350.263L525.324 357.02L522.439 361.234L526.922 368.395C525.85 371.054 525.055 373.816 524.545 376.637L516.555 381.069L517.529 391.127L517.841 394.313L525.926 396.929C526.808 399.643 527.961 402.261 529.372 404.743L526.092 413.287L531.405 418.476L535.556 422.627L543.351 419.514C544.978 420.541 546.673 421.457 548.425 422.254C549.318 422.659 550.221 423.032 551.123 423.375L554.071 431.906L565.83 432.82L555.576 432.021L567.334 432.934L571.184 425.668C574.15 425.292 577.066 424.596 579.882 423.593L587.447 428.128L590.695 425.814L591.899 424.953L598.272 420.396L596.6 412.539C598.683 410.276 600.51 407.791 602.049 405.128L610.579 403.768L613.361 393.181L613.984 390.752L607.757 385.874C607.901 382.747 607.693 379.614 607.135 376.532L612.749 370.066L609.469 363.216L607.01 358.027L599.07 358.318C597.17 355.875 595.002 353.653 592.605 351.695L592.751 343.081L591.38 342.458L582.04 338.202L580.671 337.569L574.589 342.997C571.709 342.383 568.774 342.073 565.83 342.074H565.621L560.09 335.233L560.039 335.223ZM565.736 410.11C561.315 410.104 556.967 408.976 553.1 406.833C549.231 404.69 545.97 401.602 543.62 397.855C541.271 394.11 539.908 389.83 539.661 385.415C539.415 381 540.291 376.594 542.209 372.609C544.36 368.139 547.73 364.366 551.931 361.728C556.132 359.089 560.993 357.69 565.955 357.695C569.491 357.677 572.995 358.384 576.249 359.771C581.785 362.174 586.324 366.414 589.098 371.774C591.871 377.135 592.712 383.29 591.477 389.198C590.241 395.106 587.007 400.407 582.318 404.208C577.627 408.008 571.771 410.075 565.736 410.058V410.11Z" fill="black"></path><path d="M592.697 343.082L594.886 348.261L592.551 351.697L592.697 343.082Z" fill="black"></path><path d="M508.301 433.328L511.995 436.95L510.366 438.217L508.301 433.328Z" fill="black"></path><path d="M509.784 435.518L511.206 436.91L510.584 437.397L509.784 435.518ZM506.816 431.149L510.148 439.048L512.773 436.972L506.816 431.129V431.149Z" fill="black"></path><path d="M522.438 361.184L524.617 366.363L525.177 365.554L522.438 361.184Z" fill="black"></path><path d="M522.438 361.184L524.617 366.363L525.177 365.554L522.438 361.184Z" fill="black"></path><path d="M517.84 394.262L520.03 399.441L522.842 395.881L517.84 394.262Z" fill="black"></path><path d="M526.09 413.234L528.269 418.414L529.805 416.877L526.09 413.234Z" fill="black"></path><path d="M554.102 431.793L556.281 436.972L557.558 432.063L554.102 431.793Z" fill="black"></path><path d="M613.93 390.742L616.12 395.922L612.789 395.163L613.93 390.742Z" fill="black"></path><path d="M612.672 370.098L614.851 375.276H610.711L612.672 370.098Z" fill="black"></path><path d="M640.735 396.855L644.067 404.755L641.213 415.83L636.812 412.071L640.735 396.855Z" fill="black"></path><path d="M638.816 365.375L642.148 373.273H634.676L638.816 365.375Z" fill="black"></path><path d="M550.332 460.016L553.487 460.264L552.625 465.475L550.332 460.016Z" fill="black"></path><path d="M551.143 460.596L552.887 460.741L552.409 463.616L551.143 460.596ZM549.523 459.434L552.855 467.332L554.101 459.786L549.523 459.434Z" fill="black"></path></g></g></g><path d="M208 217.5V209L323 149H333.5L306.784 238.361C305.521 242.584 301.081 244.99 296.853 243.742L208 217.5Z" fill="black"></path><path d="M186.634 203.652L214.708 115.61L326.365 146.372L298.248 234.39L186.634 203.652Z" fill="#E8F7F3" stroke="black"></path></g><defs><linearGradient id="paint0_linear_2100_118726" x1="417.736" y1="362.594" x2="499.709" y2="513.759" gradientUnits="userSpaceOnUse"><stop stop-color="#D5E2FA"></stop><stop offset="1" stop-color="white"></stop></linearGradient><clipPath id="clip0_2100_118726"><rect width="684" height="438" fill="white" transform="translate(0 69)"></rect></clipPath></defs></svg>